<svg width="292" height="77" viewBox="0 0 292 77" fill="none" xmlns="http://www.w3.org/2000/svg">
<path d="M15 2H277C284.18 2 290 7.8203 290 15V62C290 69.1797 284.18 75 277 75H15C7.82029 75 2 69.1797 2 62V15C2 7.8203 7.8203 2 15 2Z" fill="#EF3BFF" fill-opacity="0.4" stroke="#EF3BFF" stroke-width="4"/>
<path d="M64.3248 36.8387C64.8552 36.9978 65.306 37.263 65.6773 37.6343C66.0486 37.979 66.2872 38.3768 66.3933 38.8276C66.5259 39.2519 66.4994 39.6895 66.3138 40.1403C66.1546 40.5646 65.7966 40.9492 65.2397 41.2939C65.1867 41.3735 65.1734 41.705 65.1999 42.2884C65.2265 42.8453 65.2397 43.495 65.2397 44.2376C65.2662 44.9801 65.253 45.7359 65.1999 46.505C65.1469 47.2475 65.0276 47.8309 64.8419 48.2552C64.6563 48.6 64.4309 48.905 64.1657 49.1702C63.9005 49.4354 63.622 49.6873 63.3303 49.926C62.3491 50.7481 61.3016 51.3713 60.1878 51.7956C59.074 52.2464 57.9336 52.5116 56.7668 52.5912C55.5999 52.6707 54.4198 52.5514 53.2265 52.2331C52.0596 51.9149 50.9325 51.411 49.8453 50.7215C48.4662 49.8464 47.2994 48.7193 46.3447 47.3403C45.4165 45.9613 44.7403 44.4762 44.316 42.8851C44.0508 41.8773 43.8917 40.8298 43.8386 39.7425C43.8121 38.6287 43.9049 37.5414 44.1171 36.4807C44.3292 35.3934 44.674 34.3591 45.1513 33.3779C45.6287 32.3967 46.2254 31.5083 46.9414 30.7127C47.79 29.7845 48.758 29.0155 49.8453 28.4055C50.9591 27.7956 52.0994 27.2652 53.2662 26.8144C54.1679 26.4431 55.0961 26.1646 56.0508 25.979C57.0055 25.7934 57.9734 25.7271 58.9546 25.7801C59.6972 25.8332 60.4928 25.9657 61.3414 26.1779C62.2165 26.3635 62.9591 26.7083 63.569 27.2122C63.8607 27.4508 64.0994 27.7425 64.285 28.0873C64.4972 28.432 64.6165 28.7901 64.643 29.1613C64.6961 29.5061 64.6563 29.8508 64.5237 30.1956C64.3911 30.5138 64.1524 30.8055 63.8077 31.0707C63.4629 31.3359 63.0917 31.495 62.6939 31.5481C62.3226 31.5746 61.9381 31.5481 61.5403 31.4685C61.1425 31.3624 60.7447 31.2298 60.3469 31.0707C59.9491 30.9116 59.5778 30.779 59.2331 30.6729C58.9414 30.5669 58.6232 30.5271 58.2784 30.5536C57.9602 30.5536 57.6419 30.5801 57.3237 30.6332C56.3955 30.8983 55.4541 31.2298 54.4994 31.6276C53.5712 31.9989 52.7093 32.463 51.9138 33.0199C51.1182 33.5768 50.4287 34.2398 49.8453 35.0088C49.2883 35.7779 48.9303 36.7061 48.7712 37.7934C48.5591 39.1459 48.6254 40.4983 48.9701 41.8508C49.3149 43.1768 49.9513 44.3436 50.8795 45.3514C51.4894 46.0144 52.1922 46.558 52.9878 46.9823C53.8099 47.3801 54.6585 47.6188 55.5336 47.6983C56.4088 47.7779 57.2707 47.6851 58.1193 47.4199C58.9679 47.1547 59.7237 46.6906 60.3867 46.0276V41.7315C59.8563 41.758 59.2994 41.811 58.716 41.8906C58.1591 41.9436 57.5889 41.9834 57.0055 42.0099C56.4486 42.0099 55.8917 41.9702 55.3348 41.8906C54.8044 41.7845 54.3005 41.5989 53.8232 41.3337C53.3723 41.0685 53.0541 40.7238 52.8685 40.2994C52.7093 39.8486 52.6696 39.411 52.7491 38.9867C52.8287 38.5359 53.0143 38.1249 53.306 37.7536C53.5977 37.3823 53.9955 37.1304 54.4994 36.9978C54.7381 36.9448 55.0298 36.9182 55.3745 36.9182C55.7458 36.8917 56.1038 36.8785 56.4486 36.8785C56.8198 36.8785 57.1513 36.8917 57.443 36.9182C57.7348 36.9182 57.9602 36.9182 58.1193 36.9182C59.1535 36.9182 60.1745 36.905 61.1823 36.8785C62.2165 36.8519 63.264 36.8387 64.3248 36.8387ZM83.6297 45.6696C84.2662 45.5105 84.8231 45.5105 85.3004 45.6696C85.8043 45.8022 86.1888 46.0409 86.454 46.3856C86.7192 46.7304 86.8385 47.1547 86.812 47.6586C86.7855 48.1624 86.5601 48.6928 86.1358 49.2497C85.791 49.7006 85.3137 50.0851 84.7037 50.4033C84.0938 50.7215 83.5236 50.9735 82.9932 51.1591C81.6938 51.6365 80.4606 51.968 79.2938 52.1536C78.1269 52.3392 77.0264 52.3392 75.9921 52.1536C74.9844 51.968 74.0297 51.5834 73.128 51C72.2529 50.4166 71.4308 49.5945 70.6618 48.5337C70.1314 47.8177 69.7336 47.0088 69.4684 46.1072C69.2297 45.179 69.0971 44.2376 69.0706 43.2829C69.0441 42.3282 69.1236 41.3867 69.3093 40.4586C69.4949 39.5304 69.7601 38.695 70.1048 37.9525C70.5557 37.0243 71.2717 36.1757 72.2529 35.4066C73.2341 34.6376 74.3214 34.0276 75.5148 33.5768C76.7082 33.126 77.928 32.874 79.1745 32.821C80.4209 32.7414 81.5214 32.9271 82.4761 33.3779C83.2717 33.7492 83.9479 34.2928 84.5048 35.0088C85.0883 35.6983 85.4861 36.4541 85.6982 37.2762C85.9104 38.0983 85.9236 38.9337 85.738 39.7823C85.5789 40.6044 85.1546 41.3602 84.4651 42.0497C83.8021 42.7127 83.0728 43.2564 82.2772 43.6807C81.4816 44.0785 80.6595 44.4365 79.8109 44.7547C78.9623 45.0464 78.0872 45.2983 77.1855 45.5105C76.3104 45.7227 75.4618 45.9613 74.6397 46.2265C75.1966 46.863 75.833 47.274 76.549 47.4597C77.2651 47.6188 78.0076 47.6453 78.7767 47.5392C79.5722 47.4331 80.3678 47.221 81.1634 46.9028C81.959 46.558 82.7015 46.1867 83.391 45.789L83.6297 45.6696ZM75.5943 38.8276C74.9844 39.1724 74.5336 39.6099 74.2419 40.1403C73.9501 40.6442 73.738 41.3602 73.6054 42.2884C74.2949 42.0762 75.064 41.8508 75.9126 41.6122C76.7877 41.3735 77.6098 41.1215 78.3789 40.8564C79.1479 40.5912 79.7977 40.2994 80.328 39.9812C80.8584 39.663 81.1236 39.3182 81.1236 38.947C81.1236 38.7348 81.0839 38.5359 81.0043 38.3503C80.9513 38.1381 80.8187 37.9923 80.6065 37.9127C79.864 37.6475 79.0949 37.5945 78.2993 37.7536C77.5037 37.9127 76.8408 38.1381 76.3104 38.4298L75.5943 38.8276ZM90.3935 37.7536C89.8631 37.621 89.3991 37.3956 89.0013 37.0773C88.63 36.7591 88.3648 36.3878 88.2057 35.9635C88.0731 35.5392 88.0731 35.1017 88.2057 34.6508C88.3648 34.2 88.6963 33.789 89.2002 33.4177C89.6245 33.0994 90.1018 32.9403 90.6322 32.9403C91.1626 32.9403 91.6797 32.9403 92.1836 32.9403C92.1836 32.7547 92.1703 32.3569 92.1438 31.747C92.1173 31.1105 92.104 30.421 92.104 29.6785C92.1306 28.9359 92.1836 28.2331 92.2631 27.5702C92.3427 26.8807 92.4886 26.4033 92.7007 26.1381C93.2311 25.3956 93.8808 25.0508 94.6499 25.1039C95.4455 25.1304 96.0952 25.5017 96.5991 26.2177C96.7051 26.3503 96.798 26.5094 96.8775 26.695C96.9836 26.8807 97.0366 27.053 97.0366 27.2122C97.0631 28.1669 97.0631 29.1215 97.0366 30.0762C97.0366 31.0309 97.0366 31.9856 97.0366 32.9403H100.179C100.657 32.9403 101.068 33.0994 101.412 33.4177C101.757 33.7359 101.996 34.1072 102.128 34.5315C102.287 34.9558 102.327 35.3934 102.248 35.8442C102.195 36.295 101.996 36.6663 101.651 36.958C101.041 37.4619 100.325 37.7271 99.5029 37.7536C98.7073 37.7801 97.8852 37.7934 97.0366 37.7934C97.0366 39.2519 97.0234 40.7105 96.9969 42.1691C96.9969 43.6276 97.0101 45.0862 97.0366 46.5448C97.0366 47.1812 97.0631 47.8309 97.1162 48.4939C97.1957 49.1569 97.156 49.7934 96.9969 50.4033C96.8643 50.8807 96.6388 51.2519 96.3206 51.5171C96.0024 51.8088 95.6444 51.9812 95.2466 52.0343C94.8488 52.1138 94.4377 52.0873 94.0134 51.9547C93.5891 51.8486 93.1913 51.6365 92.8201 51.3182C92.6344 51.1326 92.4886 50.8144 92.3825 50.3635C92.3029 49.9127 92.2499 49.4354 92.2234 48.9315C92.1969 48.3481 92.1969 47.7249 92.2234 47.0619C92.2234 46.5315 92.2234 45.842 92.2234 44.9934C92.2234 44.1448 92.2101 43.2696 92.1836 42.368C92.1836 41.4398 92.1836 40.5646 92.1836 39.7425C92.1836 38.9204 92.1836 38.2707 92.1836 37.7934L90.3935 37.7536ZM120.135 48.2155C119.949 47.7116 119.883 47.2077 119.936 46.7039C120.016 46.2 120.188 45.7757 120.453 45.4309C120.745 45.0597 121.116 44.8077 121.567 44.6751C122.018 44.516 122.522 44.5558 123.079 44.7945C123.582 45.0066 124.007 45.3249 124.352 45.7492C124.723 46.147 125.16 46.4652 125.664 46.7039C126.354 47.0486 127.057 47.3006 127.773 47.4597C128.276 47.5923 128.78 47.6851 129.284 47.7381C129.788 47.7646 130.305 47.7779 130.836 47.7779C131.233 47.6718 131.578 47.5657 131.87 47.4597C132.162 47.3536 132.48 47.1282 132.824 46.7834C133.222 46.4387 133.474 46.0276 133.58 45.5503C133.713 45.0729 133.713 44.6088 133.58 44.158C133.474 43.6807 133.249 43.2564 132.904 42.8851C132.586 42.4873 132.188 42.2221 131.711 42.0895C130.782 41.7713 129.854 41.5326 128.926 41.3735C127.998 41.1878 127.096 40.9757 126.221 40.737C125.346 40.4983 124.511 40.1669 123.715 39.7425C122.946 39.2917 122.23 38.6552 121.567 37.8331C121.196 37.3823 120.957 36.9845 120.851 36.6398C120.745 36.295 120.626 35.8575 120.493 35.3271C120.254 34.0541 120.347 32.9801 120.771 32.105C121.222 31.2298 121.779 30.4343 122.442 29.7182C123.291 28.7901 124.245 28.0873 125.306 27.6099C126.394 27.1061 127.521 26.7878 128.687 26.6552C129.881 26.4961 131.074 26.5227 132.268 26.7348C133.487 26.9204 134.641 27.2519 135.728 27.7293C136.365 27.9945 136.763 28.4055 136.922 28.9624C137.107 29.5193 137.121 30.063 136.962 30.5934C136.802 31.1238 136.497 31.5613 136.047 31.9061C135.596 32.2508 135.065 32.3702 134.455 32.2641C133.819 32.1315 133.222 31.9989 132.665 31.8663C132.108 31.7072 131.552 31.5746 130.995 31.4685C130.57 31.389 130.106 31.3757 129.602 31.4287C129.125 31.4818 128.661 31.5746 128.21 31.7072C127.786 31.8133 127.388 31.9459 127.017 32.105C126.645 32.2376 126.367 32.3834 126.181 32.5425C125.969 32.7282 125.757 32.9669 125.545 33.2586C125.359 33.5503 125.253 33.8818 125.227 34.253C125.174 34.7039 125.346 35.0751 125.744 35.3669C126.142 35.6586 126.566 35.8707 127.017 36.0033C127.892 36.189 128.794 36.3746 129.722 36.5602C130.65 36.7193 131.565 36.958 132.466 37.2762C133.368 37.568 134.203 37.9525 134.973 38.4298C135.768 38.9072 136.444 39.5436 137.001 40.3392C137.611 41.0287 138.049 41.8111 138.314 42.6862C138.579 43.5613 138.672 44.4365 138.592 45.3116C138.539 46.1867 138.341 47.0354 137.996 47.8575C137.651 48.653 137.174 49.3558 136.564 49.9657C136.139 50.3901 135.689 50.7481 135.211 51.0398C134.76 51.358 134.27 51.663 133.739 51.9547C132.679 52.5116 131.538 52.7901 130.318 52.7901C129.099 52.7901 127.879 52.6044 126.659 52.2331C125.439 51.8884 124.285 51.3978 123.198 50.7613C122.111 50.0983 121.182 49.3823 120.413 48.6133L120.135 48.2155ZM144.534 37.7536C144.004 37.621 143.54 37.3956 143.142 37.0773C142.771 36.7591 142.505 36.3878 142.346 35.9635C142.214 35.5392 142.214 35.1017 142.346 34.6508C142.505 34.2 142.837 33.789 143.341 33.4177C143.765 33.0994 144.242 32.9403 144.773 32.9403C145.303 32.9403 145.82 32.9403 146.324 32.9403C146.324 32.7547 146.311 32.3569 146.284 31.747C146.258 31.1105 146.245 30.421 146.245 29.6785C146.271 28.9359 146.324 28.2331 146.404 27.5702C146.483 26.8807 146.629 26.4033 146.841 26.1381C147.372 25.3956 148.021 25.0508 148.791 25.1039C149.586 25.1304 150.236 25.5017 150.74 26.2177C150.846 26.3503 150.939 26.5094 151.018 26.695C151.124 26.8807 151.177 27.053 151.177 27.2122C151.204 28.1669 151.204 29.1215 151.177 30.0762C151.177 31.0309 151.177 31.9856 151.177 32.9403H154.32C154.797 32.9403 155.208 33.0994 155.553 33.4177C155.898 33.7359 156.136 34.1072 156.269 34.5315C156.428 34.9558 156.468 35.3934 156.388 35.8442C156.335 36.295 156.136 36.6663 155.792 36.958C155.182 37.4619 154.466 37.7271 153.644 37.7536C152.848 37.7801 152.026 37.7934 151.177 37.7934C151.177 39.2519 151.164 40.7105 151.137 42.1691C151.137 43.6276 151.151 45.0862 151.177 46.5448C151.177 47.1812 151.204 47.8309 151.257 48.4939C151.336 49.1569 151.297 49.7934 151.137 50.4033C151.005 50.8807 150.779 51.2519 150.461 51.5171C150.143 51.8088 149.785 51.9812 149.387 52.0343C148.989 52.1138 148.578 52.0873 148.154 51.9547C147.73 51.8486 147.332 51.6365 146.961 51.3182C146.775 51.1326 146.629 50.8144 146.523 50.3635C146.444 49.9127 146.391 49.4354 146.364 48.9315C146.337 48.3481 146.337 47.7249 146.364 47.0619C146.364 46.5315 146.364 45.842 146.364 44.9934C146.364 44.1448 146.351 43.2696 146.324 42.368C146.324 41.4398 146.324 40.5646 146.324 39.7425C146.324 38.9204 146.324 38.2707 146.324 37.7934L144.534 37.7536ZM173.269 49.2497C173.481 50.0188 173.441 50.6552 173.149 51.1591C172.858 51.663 172.447 51.9945 171.916 52.1536C171.412 52.3392 170.855 52.326 170.245 52.1138C169.636 51.9017 169.105 51.4773 168.654 50.8409C167.912 51.3978 167.182 51.7823 166.466 51.9945C165.777 52.2331 164.981 52.3657 164.08 52.3923C162.727 52.4453 161.521 52.2862 160.46 51.9149C159.399 51.5702 158.497 51.0398 157.755 50.3238C157.039 49.6077 156.508 48.7193 156.164 47.6586C155.819 46.5713 155.7 45.3249 155.806 43.9193C155.859 43.3359 155.952 42.7657 156.084 42.2088C156.243 41.6519 156.416 41.1083 156.601 40.5779C156.813 39.9945 157.105 39.3713 157.476 38.7083C157.874 38.0453 158.272 37.4751 158.67 36.9978C160.102 35.2475 161.892 33.9878 164.04 33.2188C164.411 33.0862 164.915 32.9669 165.552 32.8608C166.188 32.7547 166.824 32.7149 167.461 32.7414C168.124 32.7414 168.747 32.821 169.331 32.9801C169.94 33.1392 170.391 33.4177 170.683 33.8155C170.922 34.1337 171.094 34.4122 171.2 34.6508C171.306 34.8895 171.359 35.1414 171.359 35.4066C171.386 35.6718 171.386 35.9635 171.359 36.2818C171.359 36.5735 171.359 36.9448 171.359 37.3956C171.359 38.1381 171.346 38.8674 171.319 39.5834C171.319 40.2729 171.333 40.9757 171.359 41.6917C171.359 41.9304 171.359 42.2486 171.359 42.6464C171.359 43.0177 171.373 43.4155 171.399 43.8398C171.426 44.2641 171.452 44.6751 171.479 45.0729C171.532 45.4442 171.598 45.7492 171.678 45.9878L173.269 49.2497ZM164.836 47.4597C165.127 47.274 165.459 47.0751 165.83 46.863C166.201 46.6243 166.533 46.3591 166.824 46.0674C166.586 44.6619 166.44 43.2564 166.387 41.8508C166.36 40.4453 166.374 39.0265 166.427 37.5945C165.233 37.8066 164.159 38.3238 163.205 39.1459C162.25 39.968 161.587 40.9359 161.216 42.0497C161.057 42.5006 160.924 42.9646 160.818 43.442C160.712 43.9193 160.672 44.3834 160.699 44.8343C160.725 45.4442 160.884 45.9613 161.176 46.3856C161.468 46.7834 161.812 47.0884 162.21 47.3006C162.634 47.5127 163.072 47.632 163.523 47.6586C164 47.6851 164.438 47.6188 164.836 47.4597ZM176.586 38.8276C176.586 38.9337 176.599 38.9072 176.625 38.7481C176.652 38.5624 176.639 38.2442 176.586 37.7934C176.161 37.5547 175.83 37.2497 175.591 36.8785C175.353 36.5072 175.207 36.1094 175.154 35.6851C175.127 35.2608 175.207 34.863 175.392 34.4917C175.604 34.0939 175.936 33.7624 176.387 33.4972C176.997 33.1525 177.66 33.0862 178.376 33.2983C179.118 33.5105 179.755 33.8287 180.285 34.253C180.948 33.7492 181.638 33.3249 182.354 32.9801C183.07 32.6354 183.799 32.4099 184.542 32.3039C185.284 32.1713 186.04 32.1845 186.809 32.3436C187.578 32.5028 188.334 32.8343 189.076 33.3381C189.448 33.5768 189.792 33.8818 190.111 34.253C190.429 34.5978 190.628 34.9956 190.707 35.4464C190.84 36.1094 190.787 36.6928 190.548 37.1967C190.309 37.674 189.978 38.032 189.554 38.2707C189.129 38.4829 188.652 38.5492 188.122 38.4696C187.591 38.3635 187.087 38.0718 186.61 37.5945C186.451 37.4884 186.332 37.4088 186.252 37.3558C186.199 37.2762 186.066 37.1834 185.854 37.0773C185.43 36.9713 185.006 36.9978 184.581 37.1569C184.183 37.316 183.786 37.5414 183.388 37.8331C183.017 38.0983 182.659 38.4033 182.314 38.7481C181.996 39.0663 181.704 39.358 181.439 39.6232V49.7669C181.439 50.1646 181.359 50.5492 181.2 50.9204C180.961 51.5304 180.577 51.9547 180.046 52.1934C179.543 52.432 179.025 52.4983 178.495 52.3923C177.991 52.2862 177.54 52.021 177.143 51.5967C176.771 51.1724 176.586 50.6287 176.586 49.9657V38.8276ZM195.089 37.7536C194.558 37.621 194.094 37.3956 193.697 37.0773C193.325 36.7591 193.06 36.3878 192.901 35.9635C192.768 35.5392 192.768 35.1017 192.901 34.6508C193.06 34.2 193.392 33.789 193.895 33.4177C194.32 33.0994 194.797 32.9403 195.328 32.9403C195.858 32.9403 196.375 32.9403 196.879 32.9403C196.879 32.7547 196.866 32.3569 196.839 31.747C196.813 31.1105 196.799 30.421 196.799 29.6785C196.826 28.9359 196.879 28.2331 196.958 27.5702C197.038 26.8807 197.184 26.4033 197.396 26.1381C197.926 25.3956 198.576 25.0508 199.345 25.1039C200.141 25.1304 200.791 25.5017 201.294 26.2177C201.4 26.3503 201.493 26.5094 201.573 26.695C201.679 26.8807 201.732 27.053 201.732 27.2122C201.758 28.1669 201.758 29.1215 201.732 30.0762C201.732 31.0309 201.732 31.9856 201.732 32.9403H204.874C205.352 32.9403 205.763 33.0994 206.108 33.4177C206.452 33.7359 206.691 34.1072 206.824 34.5315C206.983 34.9558 207.023 35.3934 206.943 35.8442C206.89 36.295 206.691 36.6663 206.346 36.958C205.736 37.4619 205.02 37.7271 204.198 37.7536C203.403 37.7801 202.581 37.7934 201.732 37.7934C201.732 39.2519 201.719 40.7105 201.692 42.1691C201.692 43.6276 201.705 45.0862 201.732 46.5448C201.732 47.1812 201.758 47.8309 201.812 48.4939C201.891 49.1569 201.851 49.7934 201.692 50.4033C201.56 50.8807 201.334 51.2519 201.016 51.5171C200.698 51.8088 200.34 51.9812 199.942 52.0343C199.544 52.1138 199.133 52.0873 198.709 51.9547C198.284 51.8486 197.887 51.6365 197.515 51.3182C197.33 51.1326 197.184 50.8144 197.078 50.3635C196.998 49.9127 196.945 49.4354 196.919 48.9315C196.892 48.3481 196.892 47.7249 196.919 47.0619C196.919 46.5315 196.919 45.842 196.919 44.9934C196.919 44.1448 196.905 43.2696 196.879 42.368C196.879 41.4398 196.879 40.5646 196.879 39.7425C196.879 38.9204 196.879 38.2707 196.879 37.7934L195.089 37.7536ZM221.934 45.6696C222.571 45.5105 223.128 45.5105 223.605 45.6696C224.109 45.8022 224.494 46.0409 224.759 46.3856C225.024 46.7304 225.143 47.1547 225.117 47.6586C225.09 48.1624 224.865 48.6928 224.44 49.2497C224.096 49.7006 223.618 50.0851 223.008 50.4033C222.398 50.7215 221.828 50.9735 221.298 51.1591C219.998 51.6365 218.765 51.968 217.598 52.1536C216.432 52.3392 215.331 52.3392 214.297 52.1536C213.289 51.968 212.334 51.5834 211.433 51C210.558 50.4166 209.735 49.5945 208.966 48.5337C208.436 47.8177 208.038 47.0088 207.773 46.1072C207.534 45.179 207.402 44.2376 207.375 43.2829C207.349 42.3282 207.428 41.3867 207.614 40.4586C207.8 39.5304 208.065 38.695 208.41 37.9525C208.86 37.0243 209.576 36.1757 210.558 35.4066C211.539 34.6376 212.626 34.0276 213.819 33.5768C215.013 33.126 216.233 32.874 217.479 32.821C218.726 32.7414 219.826 32.9271 220.781 33.3779C221.576 33.7492 222.253 34.2928 222.81 35.0088C223.393 35.6983 223.791 36.4541 224.003 37.2762C224.215 38.0983 224.228 38.9337 224.043 39.7823C223.884 40.6044 223.459 41.3602 222.77 42.0497C222.107 42.7127 221.377 43.2564 220.582 43.6807C219.786 44.0785 218.964 44.4365 218.116 44.7547C217.267 45.0464 216.392 45.2983 215.49 45.5105C214.615 45.7227 213.766 45.9613 212.944 46.2265C213.501 46.863 214.138 47.274 214.854 47.4597C215.57 47.6188 216.312 47.6453 217.081 47.5392C217.877 47.4331 218.673 47.221 219.468 46.9028C220.264 46.558 221.006 46.1867 221.696 45.789L221.934 45.6696ZM213.899 38.8276C213.289 39.1724 212.838 39.6099 212.547 40.1403C212.255 40.6442 212.043 41.3602 211.91 42.2884C212.6 42.0762 213.369 41.8508 214.217 41.6122C215.092 41.3735 215.915 41.1215 216.684 40.8564C217.453 40.5912 218.102 40.2994 218.633 39.9812C219.163 39.663 219.428 39.3182 219.428 38.947C219.428 38.7348 219.389 38.5359 219.309 38.3503C219.256 38.1381 219.123 37.9923 218.911 37.9127C218.169 37.6475 217.4 37.5945 216.604 37.7536C215.808 37.9127 215.145 38.1381 214.615 38.4298L213.899 38.8276ZM246.323 47.8177C246.774 48.5867 246.92 49.2762 246.761 49.8862C246.628 50.4961 246.337 50.947 245.886 51.2387C245.435 51.5569 244.878 51.6762 244.215 51.5967C243.579 51.5436 242.955 51.2122 242.345 50.6022C241.709 51.053 241.046 51.3978 240.357 51.6365C239.667 51.9017 238.938 52.1271 238.169 52.3127C236.975 52.5779 235.822 52.5514 234.708 52.2331C233.621 51.9414 232.653 51.4508 231.804 50.7613C230.955 50.0718 230.266 49.2232 229.736 48.2155C229.205 47.1812 228.913 46.0674 228.86 44.874C228.781 43.5481 228.874 42.2751 229.139 41.0552C229.431 39.8354 229.881 38.7215 230.491 37.7138C231.101 36.7061 231.897 35.8442 232.878 35.1282C233.886 34.4122 235.066 33.9083 236.418 33.6166C237.214 33.4575 238.01 33.3779 238.805 33.3779C239.627 33.3779 240.436 33.4442 241.232 33.5768C241.205 32.9934 241.179 32.3304 241.152 31.5878C241.152 30.8188 241.152 30.0762 241.152 29.3602C241.152 28.6442 241.179 28.0077 241.232 27.4508C241.285 26.8674 241.351 26.4564 241.431 26.2177C241.616 25.7403 241.895 25.3823 242.266 25.1436C242.664 24.8785 243.075 24.7459 243.499 24.7459C243.923 24.7193 244.334 24.8254 244.732 25.0641C245.157 25.2762 245.488 25.6077 245.727 26.0586C245.78 26.1912 245.846 26.3238 245.926 26.4564C246.005 26.5624 246.045 26.6818 246.045 26.8144C246.071 30.2884 246.071 33.7227 246.045 37.1171C246.045 40.5116 246.045 43.9459 246.045 47.4199C246.151 47.579 246.244 47.7116 246.323 47.8177ZM240.794 45.6298C240.847 45.5503 240.94 45.4707 241.073 45.3912C241.232 45.3116 241.311 45.2055 241.311 45.0729C241.311 43.9591 241.311 42.8718 241.311 41.8111C241.311 40.7238 241.298 39.6232 241.271 38.5094C240.635 38.3768 239.972 38.2972 239.282 38.2707C238.593 38.2442 237.917 38.3105 237.254 38.4696C236.617 38.6287 236.021 38.8939 235.464 39.2652C234.933 39.6365 234.509 40.1669 234.191 40.8564C234.032 41.3602 233.886 41.8641 233.753 42.368C233.621 42.8718 233.541 43.3624 233.515 43.8398C233.515 44.3171 233.581 44.7945 233.713 45.2718C233.846 45.7227 234.071 46.1602 234.39 46.5845C234.496 46.6906 234.615 46.7967 234.748 46.9028C234.907 47.0088 235.198 47.1945 235.623 47.4597C236.604 47.5392 237.532 47.4464 238.407 47.1812C239.309 46.916 240.105 46.3989 240.794 45.6298Z" fill="#A000AE"/>
</svg>
